<?xml version="1.0" encoding="iso-8859-1"?>
<!-- Uploaded to: SVG Repo, www.svgrepo.com, Generator: SVG Repo Mixer Tools -->
<svg fill="#000000" height="800px" width="800px" version="1.1" id="Layer_1" xmlns="http://www.w3.org/2000/svg" xmlns:xlink="http://www.w3.org/1999/xlink" 
	 viewBox="0 0 512 512" xml:space="preserve">
<g>
	<g>
		<path d="M509.019,322.783H372.87v50.087c0,9.223-7.473,16.696-16.696,16.696c-9.223,0-16.696-7.473-16.696-16.696v-50.087H172.522
			v50.087c0,9.223-7.473,16.696-16.696,16.696c-9.223,0-16.696-7.473-16.696-16.696v-50.087H2.981
			C1.097,328.101,0,333.712,0,339.478v100.174c0,27.619,22.468,50.087,50.087,50.087h411.826c27.619,0,50.087-22.468,50.087-50.087
			V339.478C512,333.712,510.903,328.101,509.019,322.783z"/>
	</g>
</g>
<g>
	<g>
		<path d="M280.131,192.022c7.679-5.124,18.038-3.049,23.152,4.63l61.825,92.739h118.378L316.388,112.595
			c11.607,5.624,25.12,9.839,39.786,9.839c43.837,0,77.794-37.358,79.218-38.951c5.68-6.337,5.68-15.934,0-22.272
			c-1.424-1.593-35.38-38.951-79.218-38.951c-23.905,0-44.821,11.106-59.177,21.466c-9.064-12.943-24.03-21.466-40.997-21.466
			s-31.933,8.524-40.997,21.466c-14.356-10.36-35.272-21.466-59.177-21.466c-43.837,0-77.794,37.358-79.218,38.951
			c-5.68,6.337-5.68,15.934,0,22.272c1.424,1.593,35.38,38.951,79.218,38.951c14.665,0,28.179-4.215,39.786-9.839L28.514,289.391
			h118.378l61.826-92.739c5.109-7.679,15.472-9.756,23.152-4.63c7.674,5.114,9.745,15.478,4.63,23.152l-49.479,74.217h137.956
			l-49.478-74.218C270.386,207.5,272.456,197.136,280.131,192.022z M356.174,55.652c16.381,0,31.653,8.94,41.815,16.696
			c-10.163,7.756-25.435,16.696-41.815,16.696c-16.386,0-31.657-8.946-41.815-16.696C324.522,64.592,339.793,55.652,356.174,55.652z
			 M155.826,89.043c-16.386,0-31.657-8.946-41.815-16.696c10.163-7.756,25.435-16.696,41.815-16.696
			c16.38,0,31.653,8.94,41.815,16.696C187.479,80.103,172.207,89.043,155.826,89.043z M256,89.043
			c-9.206,0-16.696-7.49-16.696-16.696s7.49-16.696,16.696-16.696s16.696,7.49,16.696,16.696S265.206,89.043,256,89.043z"/>
	</g>
</g>
</svg>